<?xml version="1.0" encoding="UTF-8"?><svg id="Layer_1" xmlns="http://www.w3.org/2000/svg" viewBox="0 0 1608.88 505.87"><defs><style>.cls-1{fill:#143148;fill-rule:evenodd;}</style></defs><path id="S" class="cls-1" d="M314.03,267.39h-64.3c-3.75,0-3.82-.03-2.81-3.66,1.85-6.67,3.84-13.32,5.67-19.99,.62-2.31,2.06-2.64,4.06-2.63,16.97,.05,33.95,.03,50.93,.03,24.96,0,49.91,.05,74.88-.07,3.34-.08,6.7-.58,10-1.49,4.89-1.14,8.9-5.08,10.11-9.93,1.09-3.64,1.9-7.34,3.14-10.94,3-8.76-.15-11.84-9.31-13.03-2.2-.18-4.43-.21-6.66-.11-27.74,0-55.5,.18-83.2-.13-7.19-.19-14.25-1.13-21.08-2.79-6.99-.98-12.38-5.9-13.92-12.69-.63-3.82-.51-7.81,.36-11.76,1.19-5.79,3.32-11.48,4.92-17.24,2.59-10.29,10.72-18.87,20.96-22.11,6.96-2.61,14.2-3.97,21.36-4.04,43.71-.21,87.41-.38,131.1-.51,3.38,0,3.69,.47,2.73,3.73-1.95,6.66-3.94,13.3-5.8,19.97-.51,1.82-1.41,2.63-3.21,2.51-.92-.05-1.86,0-2.78,0-40.82,0-81.64,0-122.46,.03-2.6,.03-5.21,.25-7.81,.66-2.74,.17-5.16,2.3-5.7,5.02-.57,2.29-1.34,4.56-2.02,6.83-1.02,2.18-.15,4.58,1.94,5.35,.39,.14,.8,.22,1.23,.24,2.42,.41,4.89,.62,7.39,.64,30.24,.05,60.51-.14,90.71,.19,6.45,.19,12.76,1.23,18.75,3.09,13.43,3.91,17.3,13.9,14.5,27.12-1.95,8.65-4.43,17.24-7.43,25.7-4.46,14.79-17.36,26.34-32.48,29.08-7.4,1.7-14.87,2.64-22.29,2.79-20.5,.38-40.98,.14-61.48,.14Z"/><path id="E" class="cls-1" d="M995.93,189.35c-1.61,5.59-3.05,10.59-4.5,15.59-.59,1.62-1.07,3.26-1.43,4.92-.41,2.97-1.98,3.61-4.71,3.61-42.58-.07-85.17-.08-127.76-.04-4.96,0-4.87-.68-6.36,4.68-2.08,7.48-4.33,14.93-6.62,22.79,1.56,.1,2.79,.24,4.02,.24,42.59,.01,85.18,.01,127.77,0,4.84,0,4.84,.02,3.39,4.88-1.83,6.2-3.73,12.38-5.39,18.6-.58,2.15-1.58,2.93-3.58,2.77-.64-.05-1.3,0-1.95,0h-155.58c-.55-.03-1.11-.03-1.67,0-2.5,.28-2.88-.74-2.19-3.09,6.3-21.32,12.54-42.65,18.73-64,6.14-21.06,12.31-42.13,18.34-63.2,.66-2.33,1.76-2.87,3.82-2.84,6.3,.06,12.62,.02,18.92,.02h137.51c1.03-.15,2.05-.11,3.02,.11,.74,.32,1.72,1.43,1.57,2.01-1.99,7.4-4.13,14.79-6.4,22.17-.24,.76-1.56,1.54-2.48,1.86-1.02,.19-2.05,.23-3.05,.09h-127.21q-4.12,0-5.33,4.13c-2.16,7.38-4.26,14.78-6.51,22.15-.57,1.91-.09,2.62,1.76,2.54,.93-.04,1.86,0,2.78,0h131.08v.02Z"/><path id="F" class="cls-1" d="M735.79,220.69l51.1,45.77-.4,.78c-1.06,.05-2.12,.15-3.17,.15-12.33,0-24.66-.11-37.02,.09-2.97,.14-5.73-.94-7.64-2.98-8.21-8.26-16.46-16.48-24.74-24.66-6.09-6.04-12.15-12.13-18.39-18.02-1.25-1.06-2.85-1.66-4.57-1.7-8.51-.16-17.07,0-25.59-.12-2.46-.03-3.46,.91-4.13,3.28-3.88,13.69-7.93,27.36-11.87,41.04-.62,2.15-1.56,3.19-3.97,3.13-6.57-.16-13.16-.09-19.75-.04-2.17,.02-2.87-.62-2.17-2.98,10.65-36.26,21.26-72.53,31.82-108.82,1.7-5.83,3.41-11.67,4.96-17.53,.72-2.73,1.92-3.88,4.92-3.88,38.39,.1,76.8,0,115.19,.15,5.64,.07,11.19,.73,16.56,1.97,13.63,3.05,19.74,12.23,16.87,26.45-1.93,9.31-4.59,18.53-7.96,27.59-6.43,17.45-19.77,26.34-37.31,28.48-8.35,1.02-16.72,.85-25.08,1.17-2.41,.09-4.81,0-7.21,0l-.43,.67Zm-7.92-60.19c-15.03,0-30.06,.05-45.06-.05-2.46,0-3.55,.84-4.21,3.18-2.74,9.77-5.61,19.51-8.41,29.27-1.04,3.62-1.02,3.65,2.55,3.65,29.77,0,59.54-.02,89.31-.05,2.97-.04,5.96-.47,8.9-1.26,5-1.08,9.13-5.08,10.35-10.03,1.28-4.47,2.6-8.93,3.95-13.39,1.74-4.25-.19-8.72-4.3-9.98-.33-.1-.66-.18-1-.23-2.53-.65-5.16-1-7.84-1.05-14.74-.09-29.48-.04-44.23-.04h-.01Z"/><path id="Q" class="cls-1" d="M584.95,281.54c-1.21,.13-2.11,.31-2.99,.31-6.31,.03-12.61-.04-18.93,.05-1.75,.29-3.24-.87-3.33-2.59h0c-.43-2.78-1.2-5.47-1.54-8.24s-1.63-3.75-4.62-3.74c-24.32,.13-48.63,.18-72.92,0-7.86,.27-15.44-1.42-22.06-4.9-6.08-3.37-9.64-9.81-9.42-17.07-.18-7.92,2.7-15.47,4.89-23.09,5.08-17.7,10.26-35.38,15.45-53.06,2.14-7.93,6.37-15.36,12.24-21.5,5.2-5.31,11.82-8.98,18.85-10.46,7.02-1.65,14.11-2.61,21.16-2.84,24.8-.34,49.57-.28,74.31-.05,8.7-.41,17.13,1.28,24.58,4.93,6.57,3.49,10.23,10.56,9.48,18.35-.64,7.14-2.18,14.27-4.58,21.22-5.18,17.68-10.27,35.38-15.49,53.06-2.02,7.45-5.77,14.51-10.94,20.58-4.03,4.45-9.03,7.93-14.53,10.11-2.26,.96-2.76,1.98-2.31,3.99,.76,3.43,1.41,6.89,2.06,10.35,.26,1.39,.38,2.82,.62,4.58Zm-8.03-42.85c4.07-2.01,7.01-5.9,7.75-10.23,3.61-12.39,7.2-24.79,10.77-37.2,2.06-7.2,4.22-14.39,5.89-21.65,1.09-3.49-.79-6.89-4.21-7.59-.1-.02-.2-.04-.31-.05-2.82-.87-5.8-1.34-8.84-1.4-24.47-.11-48.95-.11-73.44,0-2.78,.03-5.59,.39-8.36,1.07-5.5,1.03-10.08,5.46-11.28,10.91-.77,2.83-1.6,5.66-2.42,8.48-4.68,16.12-9.25,32.29-14.12,48.39-1.89,4.58,.16,9.4,4.58,10.78,.69,.21,1.42,.34,2.16,.36,1.42,.27,2.88,.45,4.34,.52,19.84,.04,39.69,.04,59.55,0,1.09-.06,2.18-.18,3.26-.36-1.22-6.23-2.36-12.05-3.51-17.87-.6-3.05-.33-3.42,2.82-3.44,5.74-.03,11.5,0,17.25,0,4.35,0,4.38,0,5.23,4.27,.97,4.86,1.87,9.72,2.87,15Z"/><path id="A" class="cls-1" d="M1086.9,225.05c-16.98,0-33.96,.04-50.93-.04-2.61,0-3.76,.72-4.52,3.48-3.38,12.15-7.07,24.25-10.54,36.38-.53,1.84-1.4,2.54-3.2,2.53-6.77-.04-13.54-.04-20.31,0-2.21,0-2.59-.99-2.01-2.97,6.11-20.87,12.14-41.76,18.29-62.62,2.87-9.74,5.37-19.61,8.98-29.16,7.79-20.68,22.93-32.87,44.34-36.68,5.86-1.02,11.73-1.56,17.57-1.61,18.48-.2,36.93-.11,55.38-.06,8.66-.3,17.15,.81,25.15,3.26,12.42,3.77,19.74,15.75,17.78,29.13-1.3,9.07-3.49,18.1-6.52,26.95-6.79,23.64-13.79,47.22-20.59,70.84-.64,2.25-1.61,2.96-3.75,2.94-6.48-.08-12.98-.09-19.48,0-2.62,.04-3.01-.99-2.29-3.41,3.55-11.93,6.91-23.89,10.5-35.83,.78-2.58,.17-3.2-2.34-3.18-17.19,.1-34.35,.06-51.51,.06Zm7.42-24.56c17.06,0,34.12-.05,51.17,.05,2.46,0,3.57-.85,4.2-3.19,1.95-7.22,4.04-14.42,6.05-21.63,1.71-5.09-.33-10.27-4.88-12.36-2.55-1.23-5.34-1.99-8.25-2.23-7.33-.45-14.73-.62-22.15-.59-17.24,.07-34.48,.11-51.76,.57-11.7,.31-18.74,5.91-22.55,17.31-2.02,6.05-3.66,12.18-5.38,18.3-1.05,3.73-.98,3.75,2.92,3.75h50.63Z"/><path id="M" class="cls-1" d="M1227.45,179.35c-1.69,5.66-3.17,10.54-4.6,15.44-5.58,19.15-11.15,38.3-16.7,57.45-1.4,4.83-2.88,9.65-4.22,14.49-.17,1.34-1.39,2.41-2.73,2.38-.11,0-.22-.01-.33-.03-6.4-.03-12.8-.05-19.2,0-2.18,.02-2.56-.76-1.93-2.87,4.89-16.48,9.69-32.99,14.5-49.5,6.72-23.07,13.44-46.14,20.15-69.21,2.21-7.59,6.42-11.69,13.71-12.9,4.51-.98,8.85,.83,10.95,4.57,9.32,16.19,18.53,32.46,27.78,48.69,5.15,9.04,10.28,18.09,15.5,27.08,1.87,3.22,1.98,3.16,4.96,.47,14.69-13.17,29.37-26.34,44.06-39.52,13.68-12.22,27.4-24.39,41.16-36.52,4.05-3.92,9.64-5.67,14.74-4.59,4.81,.92,7.51,5.65,6.03,10.56-.03,.09-.06,.18-.09,.27-5.08,17.51-10.16,35.03-15.26,52.53-6.58,22.62-13.2,45.22-19.7,67.85-.66,2.29-1.63,3.16-3.93,3.11-5.92-.11-11.87-.02-17.81-.04-3.26,0-3.43-.33-2.49-3.58,8.09-27.81,16.17-55.63,24.24-83.44,.15-.51,.19-1.03,.42-2.29-1.4,1.15-2.29,1.82-3.11,2.56-23.3,20.92-46.59,41.84-69.87,62.77-2.37,2.38-5.41,3.97-8.61,4.49-4.6,.77-8.87-1.37-10.69-5.35-11.79-20.98-23.76-41.86-35.66-62.77-.27-.47-.54-.91-1.26-2.11Z"/><g><path class="cls-1" d="M394.29,341.98l-7.07,24.75c-.85,2.99-3.51,4.96-6.68,4.96H221.28c-2.59,0-4.63-2.63-3.93-5.06l4.78-16.74c.81-2.84,3.27-4.77,6.27-4.93,38.32-2,91.95-4.76,155.8-8h6.19c2.57,0,4.59,2.6,3.9,5.02Z"/><path class="cls-1" d="M588.07,332.4l-12.44,34.37c-1.07,2.97-3.87,4.92-7.05,4.92h-159.23c-2.59,0-4.44-2.61-3.56-5.03l9.54-26.35c1.02-2.82,3.59-4.73,6.59-4.88,49.73-2.49,104.51-5.2,162.37-8.07,2.67-.13,4.68,2.54,3.77,5.04Z"/><path class="cls-1" d="M775.95,322.54l-12.62,44.19c-.85,2.99-3.51,4.96-6.68,4.96h-159.23c-2.59,0-4.63-2.63-3.93-5.06l10.34-36.19c.8-2.81,3.21-4.71,6.18-4.86,52.26-2.61,106.71-5.32,161.86-8.05,2.63-.13,4.8,2.53,4.09,5.02Z"/><path class="cls-1" d="M966.74,313.04l-15.34,53.7c-.85,2.99-3.51,4.96-6.68,4.96h-159.23c-2.59,0-4.63-2.63-3.93-5.06l13.03-45.62c.81-2.85,3.27-4.78,6.28-4.93,53.93-2.71,108.31-5.42,161.81-8.05,2.63-.13,4.77,2.53,4.06,5.01Z"/><path class="cls-1" d="M1157.52,303.57l-18.04,63.16c-.85,2.99-3.51,4.96-6.68,4.96h-159.23c-2.59,0-4.63-2.63-3.93-5.06l15.74-55.1c.82-2.86,3.29-4.8,6.31-4.95l161.76-8.02c2.63-.13,4.79,2.53,4.08,5.01Z"/><path class="cls-1" d="M1348.29,294.12l-20.74,72.62c-.85,2.99-3.51,4.96-6.68,4.96h-159.23c-2.59,0-4.63-2.63-3.93-5.06l18.43-64.52c.82-2.89,3.34-4.85,6.39-5,58.72-2.91,113.42-5.64,161.73-8,2.62-.13,4.75,2.52,4.04,5Z"/></g></svg>